Coordinates
version=1
nRows=9
nColumns=24
inDegrees=yes

Units are S.I. units (second, meters, Newtons, ...)
Angles are in degrees.

endheader
time	pelvis_tilt	pelvis_list	pelvis_rotation	pelvis_tx	pelvis_ty	pelvis_tz	hip_flexion_r	hip_adduction_r	hip_rotation_r	knee_angle_r	ankle_angle_r	subtalar_angle_r	mtp_angle_r	hip_flexion_l	hip_adduction_l	hip_rotation_l	knee_angle_l	ankle_angle_l	subtalar_angle_l	mtp_angle_l	lumbar_extension	lumbar_bending	lumbar_rotation
      3.17500000	     -2.09117859	      3.13366001	      0.46719298	     -1.52887951	      0.91466907	      0.19430210	     31.12887674	     -1.55207734	     -7.26513459	    -13.79242152	     10.95847778	     -2.62812855	      0.00000000	    -12.60561490	      8.85354107	      9.52299881	    -16.78704067	     24.03686584	     -9.63913107	      0.00000000	    -10.53921040	     -3.58335901	    -11.60179246
      3.18000000	     -2.11688724	      2.97704325	      0.44824256	     -1.52124787	      0.91377791	      0.19507563	     31.19273541	     -1.24508612	     -6.72171095	    -14.56878590	     10.16769056	     -3.47737172	      0.00000000	    -12.52564335	      8.57671236	      8.66081665	    -17.78526305	     24.14875356	     -8.53498604	      0.00000000	    -10.42588829	     -3.37395225	    -11.60822194
      3.18500000	     -2.15995558	      2.76735809	      0.35518343	     -1.51357143	      0.91294037	      0.19599081	     31.26610590	     -0.83623263	     -6.06026219	    -15.33367425	      9.19383144	     -4.35611969	      0.00000000	    -12.38793604	      8.24190953	      7.67593605	    -18.83780783	     24.18005170	     -7.42838928	      0.00000000	    -10.28079583	     -3.11679124	    -11.49749873
      3.19000000	     -2.21459964	      2.53135949	      0.27742345	     -1.50594652	      0.91218844	      0.19691095	     31.34626016	     -0.40227682	     -5.37555958	    -16.09182073	      8.10772032	     -5.24020274	      0.00000000	    -12.16965885	      7.86330516	      6.69109795	    -20.00460476	     24.13191801	     -6.32239318	      0.00000000	    -10.13270158	     -2.82978807	    -11.41829187
      3.19500000	     -2.28747339	      2.25099708	      0.16747487	     -1.49831880	      0.91150910	      0.19788643	     31.44998595	      0.09469277	     -4.67113049	    -16.85566806	      6.94367433	     -6.09594653	      0.00000000	    -11.87932879	      7.43010068	      5.66340311	    -21.25418225	     23.97895262	     -5.24524951	      0.00000000	     -9.96107554	     -2.48824833	    -11.29077121
      3.20000000	     -2.37534106	      1.93812628	      0.05856916	     -1.49073244	      0.91092204	      0.19888935	     31.57398230	      0.62925496	     -3.94948343	    -17.62837005	      5.72521605	     -6.95348323	      0.00000000	    -11.51014079	      6.94407498	      4.62810460	    -22.60263880	     23.71837807	     -4.18828898	      0.00000000	     -9.78124721	     -2.11437997	    -11.16856079
      3.20500000	     -2.46813728	      1.59874655	     -0.05649929	     -1.48317054	      0.91039428	      0.19989730	     31.71329584	      1.20158827	     -3.19104562	    -18.42922113	      4.53899426	     -7.84303361	      0.00000000	    -11.07014309	      6.41766384	      3.58968808	    -24.05860104	     23.34052575	     -3.19797176	      0.00000000	     -9.60111466	     -1.70637710	    -11.01566905
      3.21000000	     -2.57401936	      1.23078222	     -0.18540906	     -1.47559579	      0.90997312	      0.20092556	     31.86561399	      1.80649325	     -2.48807003	    -19.23646241	      3.36925240	     -8.69095447	      0.00000000	    -10.57123678	      5.84834234	      2.59225934	    -25.58497848	     22.80338359	     -2.25370889	      0.00000000	     -9.40118985	     -1.26647718	    -10.88156053
      3.21500000	     -2.67507004	      0.85343001	     -0.30397586	     -1.46804018	      0.90960712	      0.20193845	     32.01757620	      2.42406553	     -1.76808503	    -20.07307689	      2.31055757	     -9.57475328	      0.00000000	    -10.01478164	      5.25191768	      1.62519325	    -27.21081272	     22.13041409	     -1.38925892	      0.00000000	     -9.21298527	     -0.81303334	    -10.73800897
